# xmcd
#
# Track frame offsets: 
#        150
#        14517
#        41202
#        73192
#        103220
#        134757
#        170365
#        212212
#
# Disc length: 4440 seconds
#
# Revision: 0
# Processed by: cddbd v1.5.2PL0 Copyright (c) Steve Scherf et al.
# Submitted via: ExactAudioCopy v0.95b4
#
DISCID=7f115608
DTITLE=Dee Dee - The one
DYEAR=2002
DGENRE=
TTITLE0=radio mix
TTITLE1=extended mix
TTITLE2=4clubbers remix
TTITLE3=driftwood remix
TTITLE4=ian van dahl remix
TTITLE5=peter luts remix
TTITLE6=kidjemet and kovac remix
TTITLE7=video
EXTD=
EXTT0=
EXTT1=
EXTT2=
EXTT3=
EXTT4=
EXTT5=
EXTT6=
EXTT7=
PLAYORDER=
